<svg width="35" height="35" viewBox="0 0 35 35" fill="none" xmlns="http://www.w3.org/2000/svg">
<path d="M34 31.2058L24.5589 21.648C26.0349 19.5118 26.9195 16.9186 26.9195 14.1192C26.9195 6.88709 21.1061 1 13.9566 1C6.81131 1 1 6.88813 1 14.1192C1 21.3513 6.81131 27.2353 13.9566 27.2353C16.925 27.2353 19.662 26.2088 21.8477 24.4984L31.2353 34L34 31.2058ZM13.9577 23.2866C8.96818 23.2866 4.90129 19.1745 4.90129 14.1203C4.90129 9.06599 8.96818 4.95596 13.9577 4.95596C18.9492 4.95596 23.012 9.06599 23.012 14.1203C23.012 19.1745 18.9492 23.2866 13.9577 23.2866Z" fill="black"/>
</svg>
