<svg width="30" height="30" viewBox="0 0 30 30" fill="none" xmlns="http://www.w3.org/2000/svg">
<path d="M27.5 12H2.5C0.66217 12 0 13.3459 0 14.9993C0 16.6541 0.661118 18 2.5 18H27.5C29.3399 18 30 16.6541 30 14.9993C30 13.3459 29.3399 12 27.5 12Z" fill="black"/>
<path d="M27.5 24H2.5C0.66217 24 0 25.3459 0 26.9993C0 28.6541 0.661118 30 2.5 30H27.5C29.3399 30 30 28.6541 30 26.9993C30 25.3459 29.3399 24 27.5 24Z" fill="black"/>
<path d="M27.5 -1.86659e-05H2.5C0.66217 -1.86659e-05 0 1.34586 0 2.99934C0 4.65414 0.661118 5.99998 2.5 5.99998H27.5C29.3399 5.99998 30 4.65414 30 2.99934C30 1.34586 29.3399 -1.86659e-05 27.5 -1.86659e-05Z" fill="black"/>
</svg>
